<svg width="800" height="800" viewBox="0 0 800 800" fill="none" xmlns="http://www.w3.org/2000/svg">
<g clip-path="url(#clip0_5_541)">
<path d="M357.455 757.482C522.652 757.482 662.004 644.808 702.793 492.316H800L651.262 234.67L502.524 492.284H587.923C551.229 583.624 461.777 648.318 357.466 648.318C220.536 648.318 109.143 536.924 109.143 399.994C109.143 263.075 220.536 151.671 357.466 151.671C427.91 151.671 491.505 181.197 536.764 228.429L592.851 131.276C529.938 76.0648 447.579 42.5283 357.487 42.5283C160.365 42.5283 2.12857e-06 202.872 2.12857e-06 400.005C-0.0213315 597.138 160.322 757.482 357.455 757.482Z" fill="#4B6E75"/>
</g>
<defs>
<clipPath id="clip0_5_541">
<rect width="800" height="800" fill="white"/>
</clipPath>
</defs>
</svg>
